<?xml version="1.0" encoding="UTF-8" standalone="no"?>
<!-- Created with Inkscape (http://www.inkscape.org/) -->

<svg
   xmlns:dc="http://purl.org/dc/elements/1.1/"
   xmlns:cc="http://creativecommons.org/ns#"
   xmlns:rdf="http://www.w3.org/1999/02/22-rdf-syntax-ns#"
   xmlns:svg="http://www.w3.org/2000/svg"
   xmlns="http://www.w3.org/2000/svg"
   xmlns:sodipodi="http://sodipodi.sourceforge.net/DTD/sodipodi-0.dtd"
   xmlns:inkscape="http://www.inkscape.org/namespaces/inkscape"
   width="16"
   height="16"
   viewBox="0 0 16 16"
   id="svg2"
   version="1.1"
   inkscape:version="0.91 r13725"
   sodipodi:docname="anp.svg"
   inkscape:export-filename="E:\My\build\DeepSeaBase\src\icons\d94.png"
   inkscape:export-xdpi="90"
   inkscape:export-ydpi="90">
  <defs
     id="defs4" />
  <sodipodi:namedview
     id="base"
     pagecolor="#ffffff"
     bordercolor="#666666"
     borderopacity="1.0"
     inkscape:pageopacity="0.0"
     inkscape:pageshadow="2"
     inkscape:zoom="31.678384"
     inkscape:cx="-12.387074"
     inkscape:cy="18.945829"
     inkscape:document-units="px"
     inkscape:current-layer="layer1"
     showgrid="true"
     units="px"
     inkscape:snap-grids="false"
     inkscape:window-width="2560"
     inkscape:window-height="1379"
     inkscape:window-x="-9"
     inkscape:window-y="-9"
     inkscape:window-maximized="1">
    <inkscape:grid
       type="xygrid"
       id="grid4136" />
  </sodipodi:namedview>
  <metadata
     id="metadata7">
    <rdf:RDF>
      <cc:Work
         rdf:about="">
        <dc:format>image/svg+xml</dc:format>
        <dc:type
           rdf:resource="http://purl.org/dc/dcmitype/StillImage" />
        <dc:title />
      </cc:Work>
    </rdf:RDF>
  </metadata>
  <g
     inkscape:label="Layer 1"
     inkscape:groupmode="layer"
     id="layer1"
     transform="translate(0,-1036.3622)">
    <path
       style="opacity:1;fill:#fffcaa;fill-opacity:0.41964284;stroke:#c4cc44;stroke-width:0.16599999;stroke-linecap:round;stroke-linejoin:miter;stroke-miterlimit:4;stroke-dasharray:none;stroke-opacity:1"
       d="m 2.5942364,1037.3622 10.8115276,0 c 0.883207,0 1.594236,0.711 1.594236,1.5942 l 0,10.8115 c 0,0.8833 -0.711029,1.5943 -1.594236,1.5943 l -10.8115276,0 C 1.7110294,1051.3622 1,1050.6512 1,1049.7679 l 0,-10.8115 c 0,-0.8832 0.7110294,-1.5942 1.5942364,-1.5942 z"
       id="rect4138" />
    <g
       style="font-style:normal;font-weight:normal;font-size:40px;line-height:125%;font-family:sans-serif;letter-spacing:0px;word-spacing:0px;fill:#494614;fill-opacity:1;stroke:#434322;stroke-width:0.2;stroke-linecap:butt;stroke-linejoin:miter;stroke-miterlimit:4;stroke-dasharray:none;stroke-opacity:1"
       id="text4138"
       transform="matrix(0.84762868,0,0,1.0018775,30.083279,-1.9321541)">
      <path
         d="m -31.964888,1047.9065 q -0.3375,0 -0.675,-0.09 -0.32625,-0.079 -0.59625,-0.3037 -0.25875,-0.2363 -0.37125,-0.5625 -0.1125,-0.3263 -0.1125,-0.6638 0,-0.3262 0.1125,-0.6412 0.1125,-0.315 0.34875,-0.5288 0.2475,-0.225 0.55125,-0.3487 0.30375,-0.1238 0.63,-0.1688 0.32625,-0.045 0.6525,-0.045 l 1.575,0 0,-0.7312 q 0,-0.36 -0.10125,-0.72 -0.10125,-0.36 -0.36,-0.63 -0.2475,-0.2813 -0.6075,-0.3938 -0.36,-0.1125 -0.72,-0.1125 -0.4275,0 -0.84375,0.135 -0.405,0.1238 -0.675,0.4838 -0.25875,0.36 -0.25875,0.7875 l -0.225,0 q 0,-0.36 0.16875,-0.6863 0.16875,-0.3375 0.46125,-0.5512 0.30375,-0.2138 0.6525,-0.2925 0.36,-0.079 0.72,-0.079 0.32625,0 0.64125,0.079 0.32625,0.068 0.59625,0.2587 0.28125,0.1913 0.46125,0.4725 0.18,0.2813 0.2475,0.6075 0.0675,0.315 0.0675,0.6413 l 0,3.9937 -0.225,0 0,-1.0687 -0.01125,0.022 q -0.18,0.3825 -0.5175,0.6525 -0.3375,0.27 -0.75375,0.3825 -0.405,0.1012 -0.8325,0.1012 z m 0.0225,-0.2025 q 0.405,0 0.79875,-0.1012 0.39375,-0.1125 0.70875,-0.3713 0.315,-0.27 0.45,-0.6525 0.135,-0.3825 0.135,-0.7875 l 0,-1.035 -1.575,0 q -0.2925,0 -0.585,0.045 -0.28125,0.034 -0.5625,0.1463 -0.27,0.1012 -0.495,0.2925 -0.225,0.1912 -0.32625,0.4725 -0.10125,0.2812 -0.10125,0.5737 0,0.2925 0.10125,0.585 0.10125,0.2813 0.32625,0.4838 0.23625,0.2025 0.52875,0.2812 0.30375,0.067 0.59625,0.067 z"
         style="font-style:normal;font-variant:normal;font-weight:100;font-stretch:normal;font-size:11.25px;font-family:Iosevka;-inkscape-font-specification:'Iosevka Thin';stroke:#434322;stroke-width:0.2;stroke-miterlimit:4;stroke-dasharray:none;stroke-opacity:1;fill:#494614;fill-opacity:1"
         id="path4157"
         inkscape:connector-curvature="0" />
      <path
         d="m -28.004888,1047.8165 0,-5.9625 0.225,0 0,1.125 q 0.45,-1.215 1.8,-1.215 0.43875,0 0.84375,0.1688 0.41625,0.1687 0.675,0.5287 0.27,0.3488 0.36,0.7763 0.10125,0.4275 0.10125,0.8662 l 0,3.7125 -0.225,0 0,-3.7125 q 0,-0.3937 -0.09,-0.7762 -0.07875,-0.3938 -0.315,-0.72 -0.23625,-0.3263 -0.6075,-0.4838 -0.37125,-0.1575 -0.765,-0.1575 -0.39375,0 -0.765,0.1575 -0.37125,0.1575 -0.6075,0.4838 -0.23625,0.3262 -0.32625,0.72 -0.07875,0.3825 -0.07875,0.7762 l 0,3.7125 -0.225,0 z"
         style="font-style:normal;font-variant:normal;font-weight:100;font-stretch:normal;font-size:11.25px;font-family:Iosevka;-inkscape-font-specification:'Iosevka Thin';stroke:#434322;stroke-width:0.2;stroke-miterlimit:4;stroke-dasharray:none;stroke-opacity:1;fill:#494614;fill-opacity:1"
         id="path4159"
         inkscape:connector-curvature="0" />
      <path
         d="m -22.379888,1050.1228 0,-8.2688 0.225,0 0,1.125 q 0.45,-1.215 1.81125,-1.215 0.43875,0 0.855,0.1575 0.4275,0.1575 0.70875,0.5175 0.28125,0.3488 0.3825,0.7875 0.1125,0.4388 0.1125,0.8775 l 0,1.4625 q 0,0.4388 -0.1125,0.8775 -0.10125,0.4388 -0.3825,0.7988 -0.28125,0.3487 -0.70875,0.5062 -0.41625,0.1575 -0.855,0.1575 -1.36125,0 -1.81125,-1.215 l 0,3.4313 -0.225,0 z m 2.01375,-2.4188 q 0.39375,0 0.77625,-0.1462 0.3825,-0.1463 0.63,-0.4725 0.25875,-0.3263 0.34875,-0.72 0.10125,-0.3938 0.10125,-0.7988 l 0,-1.4625 q 0,-0.405 -0.10125,-0.7987 -0.09,-0.3938 -0.34875,-0.72 -0.2475,-0.3263 -0.63,-0.4725 -0.3825,-0.1463 -0.77625,-0.1463 -0.405,0 -0.77625,0.1575 -0.37125,0.1463 -0.6075,0.4838 -0.23625,0.3262 -0.32625,0.72 -0.07875,0.3825 -0.07875,0.7762 l 0,1.4625 q 0,0.3938 0.07875,0.7875 0.09,0.3825 0.32625,0.72 0.23625,0.3263 0.6075,0.4838 0.37125,0.1462 0.77625,0.1462 z"
         style="font-style:normal;font-variant:normal;font-weight:100;font-stretch:normal;font-size:11.25px;font-family:Iosevka;-inkscape-font-specification:'Iosevka Thin';stroke:#434322;stroke-width:0.2;stroke-miterlimit:4;stroke-dasharray:none;stroke-opacity:1;fill:#494614;fill-opacity:1"
         id="path4161"
         inkscape:connector-curvature="0" />
    </g>
  </g>
</svg>
