<?xml version="1.0" encoding="UTF-8" standalone="no"?>
<!-- Created with Inkscape (http://www.inkscape.org/) -->

<svg
   xmlns:dc="http://purl.org/dc/elements/1.1/"
   xmlns:cc="http://creativecommons.org/ns#"
   xmlns:rdf="http://www.w3.org/1999/02/22-rdf-syntax-ns#"
   xmlns:svg="http://www.w3.org/2000/svg"
   xmlns="http://www.w3.org/2000/svg"
   xmlns:sodipodi="http://sodipodi.sourceforge.net/DTD/sodipodi-0.dtd"
   xmlns:inkscape="http://www.inkscape.org/namespaces/inkscape"
   width="16"
   height="16"
   viewBox="0 0 16 16"
   id="svg2"
   version="1.1"
   inkscape:version="0.91 r13725"
   sodipodi:docname="d94.svg"
   inkscape:export-filename="E:\My\build\DeepSeaBase\src\icons\d94.png"
   inkscape:export-xdpi="90"
   inkscape:export-ydpi="90">
  <defs
     id="defs4" />
  <sodipodi:namedview
     id="base"
     pagecolor="#ffffff"
     bordercolor="#666666"
     borderopacity="1.0"
     inkscape:pageopacity="0.0"
     inkscape:pageshadow="2"
     inkscape:zoom="31.678384"
     inkscape:cx="-4.1603041"
     inkscape:cy="4.6467746"
     inkscape:document-units="px"
     inkscape:current-layer="text4140"
     showgrid="true"
     units="px"
     inkscape:snap-grids="false"
     inkscape:window-width="2560"
     inkscape:window-height="1379"
     inkscape:window-x="-9"
     inkscape:window-y="-9"
     inkscape:window-maximized="1">
    <inkscape:grid
       type="xygrid"
       id="grid4136" />
  </sodipodi:namedview>
  <metadata
     id="metadata7">
    <rdf:RDF>
      <cc:Work
         rdf:about="">
        <dc:format>image/svg+xml</dc:format>
        <dc:type
           rdf:resource="http://purl.org/dc/dcmitype/StillImage" />
        <dc:title />
      </cc:Work>
    </rdf:RDF>
  </metadata>
  <g
     inkscape:label="Layer 1"
     inkscape:groupmode="layer"
     id="layer1"
     transform="translate(0,-1036.3622)">
    <path
       style="opacity:1;fill:#afdde9;fill-opacity:0.41964285;stroke:#164450;stroke-width:0.16599999;stroke-linecap:round;stroke-linejoin:miter;stroke-miterlimit:4;stroke-dasharray:none;stroke-opacity:1"
       d="m 2.5942364,1037.3622 10.8115276,0 c 0.883207,0 1.594236,0.711 1.594236,1.5942 l 0,10.8115 c 0,0.8833 -0.711029,1.5943 -1.594236,1.5943 l -10.8115276,0 C 1.7110294,1051.3622 1,1050.6512 1,1049.7679 l 0,-10.8115 c 0,-0.8832 0.7110294,-1.5942 1.5942364,-1.5942 z"
       id="rect4138" />
    <g
       style="font-style:normal;font-weight:normal;font-size:7.5px;line-height:125%;font-family:sans-serif;letter-spacing:0px;word-spacing:0px;fill:#0b2228;fill-opacity:1;stroke:none;stroke-width:1px;stroke-linecap:butt;stroke-linejoin:miter;stroke-opacity:1"
       id="text4140">
      <path
         d="m 3.63,1048.1172 q -0.39,0 -0.77,-0.14 -0.37,-0.14 -0.62,-0.45 -0.25,-0.32 -0.35,-0.71 -0.09,-0.39 -0.09,-0.78 l 0,-1.3 q 0,-0.39 0.09,-0.78 0.1,-0.39 0.35,-0.7 0.25,-0.32 0.62,-0.46 0.38,-0.14 0.77,-0.14 1.21,0 1.61,1.08 l 0,-3.05 0.2,0 0,7.35 -0.2,0 0,-1 q -0.4,1.08 -1.61,1.08 z m 0.02,-0.18 q 0.36,0 0.69,-0.13 0.33,-0.14 0.54,-0.43 0.21,-0.3 0.28,-0.64 0.08,-0.35 0.08,-0.7 l 0,-1.3 q 0,-0.35 -0.08,-0.69 -0.07,-0.35 -0.28,-0.64 -0.21,-0.3 -0.54,-0.43 -0.33,-0.14 -0.69,-0.14 -0.35,0 -0.69,0.13 -0.34,0.13 -0.57,0.42 -0.22,0.29 -0.31,0.64 -0.08,0.35 -0.08,0.71 l 0,1.3 q 0,0.36 0.08,0.71 0.09,0.35 0.31,0.64 0.23,0.29 0.57,0.42 0.34,0.13 0.69,0.13 z"
         style="font-style:normal;font-variant:normal;font-weight:100;font-stretch:normal;font-size:10px;font-family:Iosevka;-inkscape-font-specification:'Iosevka Thin';text-align:center;letter-spacing:-0.62000006px;text-anchor:middle;fill:#000000;fill-opacity:1;stroke:#00222b;stroke-opacity:1;stroke-width:0.2;stroke-miterlimit:4;stroke-dasharray:none"
         id="path4139" />
      <path
         d="m 8.0600001,1048.1172 q -0.35,0 -0.69,-0.09 -0.34,-0.1 -0.61,-0.33 -0.26,-0.24 -0.39,-0.57 -0.13,-0.33 -0.13,-0.68 l 0.2,0 q 0,0.31 0.11,0.61 0.12,0.29 0.35,0.5 0.24,0.21 0.54,0.3 0.31,0.08 0.62,0.08 0.29,0 0.56,-0.08 0.28,-0.08 0.5,-0.27 0.22,-0.19 0.35,-0.44 0.13,-0.26 0.18,-0.54 0.05,-0.29 0.05,-0.57 l 0,-1.99 q -0.43,1.04 -1.66,1.04 -0.4,0 -0.78,-0.14 -0.37,-0.14 -0.63,-0.45 -0.26,-0.32 -0.36,-0.71 -0.09,-0.39 -0.09,-0.78 l 0,-0.32 q 0,-0.4 0.09,-0.78 0.1,-0.39 0.35,-0.7 0.26,-0.32 0.64,-0.46 0.38,-0.14 0.77,-0.14 0.33,0 0.65,0.1 0.33,0.09 0.57,0.32 0.25,0.23 0.39,0.53 0.15,0.3 0.2,0.63 0.06,0.33 0.06,0.66 l 0,3.19 q 0,0.32 -0.06,0.63 -0.05,0.31 -0.2,0.59 -0.15,0.28 -0.4,0.49 -0.25,0.2 -0.56,0.29 -0.3,0.08 -0.62,0.08 z m -0.02,-3.21 q 0.36,0 0.7,-0.13 0.34,-0.13 0.56,-0.42 0.23,-0.29 0.31,-0.64 0.09,-0.36 0.09,-0.71 l 0,-0.16 q 0,-0.3 -0.05,-0.6 -0.04,-0.3 -0.17,-0.57 -0.13,-0.28 -0.35,-0.49 -0.22,-0.22 -0.51,-0.31 -0.29,-0.09 -0.59,-0.09 -0.35,0 -0.69,0.13 -0.34,0.13 -0.57,0.42 -0.22,0.29 -0.31,0.64 -0.08,0.35 -0.08,0.71 l 0,0.32 q 0,0.35 0.08,0.71 0.09,0.35 0.31,0.64 0.23,0.29 0.57,0.42 0.34,0.13 0.7,0.13 z"
         style="font-style:normal;font-variant:normal;font-weight:100;font-stretch:normal;font-size:10px;font-family:Iosevka;-inkscape-font-specification:'Iosevka Thin';text-align:center;letter-spacing:-0.62000006px;text-anchor:middle;fill:#000000;fill-opacity:1;stroke:#00222b;stroke-opacity:1;stroke-width:0.2;stroke-miterlimit:4;stroke-dasharray:none"
         id="path4141" />
      <path
         d="m 13.38,1048.0372 0,-2.76 -2.82,0 0,-0.18 2.77,-4.41 0.25,0 0,4.41 0.62,0 0,0.18 -0.62,0 0,2.76 -0.2,0 z m -2.59,-2.94 2.59,0 0,-4.11 -2.59,4.11 z"
         style="font-style:normal;font-variant:normal;font-weight:100;font-stretch:normal;font-size:10px;font-family:Iosevka;-inkscape-font-specification:'Iosevka Thin';text-align:center;letter-spacing:-0.62000006px;text-anchor:middle;fill:#000000;fill-opacity:1;stroke:#00222b;stroke-opacity:1;stroke-width:0.2;stroke-miterlimit:4;stroke-dasharray:none"
         id="path4143" />
    </g>
  </g>
</svg>
