<?xml version="1.0" encoding="UTF-8" standalone="no"?>
<!-- Created with Inkscape (http://www.inkscape.org/) -->

<svg
   xmlns:dc="http://purl.org/dc/elements/1.1/"
   xmlns:cc="http://creativecommons.org/ns#"
   xmlns:rdf="http://www.w3.org/1999/02/22-rdf-syntax-ns#"
   xmlns:svg="http://www.w3.org/2000/svg"
   xmlns="http://www.w3.org/2000/svg"
   xmlns:sodipodi="http://sodipodi.sourceforge.net/DTD/sodipodi-0.dtd"
   xmlns:inkscape="http://www.inkscape.org/namespaces/inkscape"
   width="16"
   height="16"
   viewBox="0 0 16 16"
   id="svg2"
   version="1.1"
   inkscape:version="0.91 r13725"
   sodipodi:docname="mat.svg"
   inkscape:export-filename="E:\My\build\DeepSeaBase\src\icons\d94.png"
   inkscape:export-xdpi="90"
   inkscape:export-ydpi="90">
  <defs
     id="defs4" />
  <sodipodi:namedview
     id="base"
     pagecolor="#ffffff"
     bordercolor="#666666"
     borderopacity="1.0"
     inkscape:pageopacity="0.0"
     inkscape:pageshadow="2"
     inkscape:zoom="44.8"
     inkscape:cx="4.3794642"
     inkscape:cy="13.197545"
     inkscape:document-units="px"
     inkscape:current-layer="layer1"
     showgrid="true"
     units="px"
     inkscape:snap-grids="false"
     inkscape:window-width="2560"
     inkscape:window-height="1379"
     inkscape:window-x="-9"
     inkscape:window-y="-9"
     inkscape:window-maximized="1">
    <inkscape:grid
       type="xygrid"
       id="grid4136" />
  </sodipodi:namedview>
  <metadata
     id="metadata7">
    <rdf:RDF>
      <cc:Work
         rdf:about="">
        <dc:format>image/svg+xml</dc:format>
        <dc:type
           rdf:resource="http://purl.org/dc/dcmitype/StillImage" />
        <dc:title />
      </cc:Work>
    </rdf:RDF>
  </metadata>
  <g
     inkscape:label="Layer 1"
     inkscape:groupmode="layer"
     id="layer1"
     transform="translate(0,-1036.3622)">
    <path
       style="opacity:1;fill:#fdaaff;fill-opacity:0.41964284;stroke:#501648;stroke-width:0.16599999;stroke-linecap:round;stroke-linejoin:miter;stroke-miterlimit:4;stroke-dasharray:none;stroke-opacity:1"
       d="m 2.5942364,1037.3622 10.8115276,0 c 0.883207,0 1.594236,0.711 1.594236,1.5942 l 0,10.8115 c 0,0.8833 -0.711029,1.5943 -1.594236,1.5943 l -10.8115276,0 C 1.7110294,1051.3622 1,1050.6512 1,1049.7679 l 0,-10.8115 c 0,-0.8832 0.7110294,-1.5942 1.5942364,-1.5942 z"
       id="rect4138" />
    <path
       inkscape:connector-curvature="0"
       id="path4150"
       style="font-style:normal;font-variant:normal;font-weight:200;font-stretch:normal;font-size:11.25px;line-height:125%;font-family:Iosevka;-inkscape-font-specification:'Iosevka, Ultra-Light';text-align:start;letter-spacing:0px;word-spacing:0px;writing-mode:lr-tb;text-anchor:start;fill:#000000;fill-opacity:1;stroke:none;stroke-width:1px;stroke-linecap:butt;stroke-linejoin:miter;stroke-opacity:1"
       d="m 1.5348207,1048.0807 0,-5.6759 0.4128501,0 0,0.5034 q 0.24771,-0.589 0.7637726,-0.589 0.6502389,0 0.856664,0.8353 0.2167463,-0.8353 0.8463427,-0.8353 0.24771,0 0.4541351,0.1607 0.2167463,0.1605 0.3096375,0.4069 0.1032125,0.2356 0.134176,0.5033 0.041285,0.257 0.041285,0.514 l 0,4.1766 -0.4128498,0 0,-4.1766 q 0,-0.257 -0.041285,-0.5032 -0.041285,-0.2571 -0.206425,-0.4713 -0.1548188,-0.2249 -0.4025289,-0.2249 -0.2373888,0 -0.4025288,0.2249 -0.1548188,0.2142 -0.1961038,0.4713 -0.041285,0.2462 -0.041285,0.5032 l 0,4.1766 -0.4128501,0 0,-4.1766 q 0,-0.257 -0.041285,-0.5032 -0.041285,-0.2571 -0.2064251,-0.4713 -0.1548187,-0.2249 -0.3922076,-0.2249 -0.24771,0 -0.41285,0.2249 -0.1548188,0.2142 -0.1961038,0.4713 -0.041285,0.2462 -0.041285,0.5032 l 0,4.1766 -0.4128501,0 z" />
    <path
       inkscape:connector-curvature="0"
       id="path4152"
       style="font-style:normal;font-variant:normal;font-weight:200;font-stretch:normal;font-size:11.25px;line-height:125%;font-family:Iosevka;-inkscape-font-specification:'Iosevka, Ultra-Light';text-align:start;letter-spacing:0px;word-spacing:0px;writing-mode:lr-tb;text-anchor:start;fill:#000000;fill-opacity:1;stroke:none;stroke-width:1px;stroke-linecap:butt;stroke-linejoin:miter;stroke-opacity:1"
       d="m 7.6644726,1048.1664 q -0.3096375,0 -0.6192751,-0.086 -0.3096376,-0.086 -0.5470264,-0.3105 -0.2270675,-0.2356 -0.3302801,-0.5462 -0.092891,-0.3213 -0.092891,-0.6425 0,-0.3213 0.1032125,-0.6212 0.1032125,-0.3105 0.3302801,-0.5247 0.2270675,-0.2249 0.5160626,-0.3427 0.2889951,-0.1285 0.5883114,-0.1713 0.3096375,-0.043 0.6089539,-0.043 l 1.2798352,0 0,-0.6211 q 0,-0.3106 -0.092891,-0.6105 -0.08257,-0.3105 -0.2993163,-0.5354 -0.2064251,-0.2249 -0.4954202,-0.3106 -0.288995,-0.096 -0.5883113,-0.096 -0.3509226,0 -0.6915239,0.1071 -0.3302801,0.1071 -0.5573477,0.4177 -0.2167463,0.2999 -0.2167463,0.664 l -0.4128501,0 q 0,-0.3535 0.1548188,-0.6748 0.1548188,-0.3319 0.4334926,-0.5354 0.2786738,-0.2142 0.6089539,-0.2891 0.3406013,-0.075 0.6812027,-0.075 0.2993163,0 0.5986326,0.065 0.2993163,0.064 0.5470264,0.2464 0.2580313,0.1713 0.433493,0.439 0.175461,0.257 0.237388,0.5676 0.07225,0.2999 0.07225,0.6212 l 0,3.8231 -0.4128496,0 -0.01032,-0.953 q -0.154819,0.3427 -0.4438141,0.5997 -0.288995,0.2462 -0.6502389,0.3427 -0.3612438,0.096 -0.7328089,0.096 z m 0.1135338,-0.3855 q 0.3302801,0 0.6502389,-0.086 0.3302801,-0.096 0.5883114,-0.3213 0.2580313,-0.2248 0.3715651,-0.5461 0.1135337,-0.332 0.1135337,-0.6747 l 0,-0.8888 -1.2798352,0 q -0.2373888,0 -0.4850989,0.032 -0.2373888,0.032 -0.4644564,0.1285 -0.2270675,0.086 -0.4231713,0.2571 -0.1857825,0.1606 -0.2786738,0.4069 -0.08257,0.2356 -0.08257,0.4926 0,0.2464 0.08257,0.4927 0.092891,0.2463 0.2786738,0.4177 0.1961038,0.1713 0.4334926,0.2356 0.2477101,0.053 0.4954201,0.053 z" />
    <path
       inkscape:connector-curvature="0"
       id="path4154"
       style="font-style:normal;font-variant:normal;font-weight:200;font-stretch:normal;font-size:11.25px;line-height:125%;font-family:Iosevka;-inkscape-font-specification:'Iosevka, Ultra-Light';text-align:start;letter-spacing:0px;word-spacing:0px;writing-mode:lr-tb;text-anchor:start;fill:#000000;fill-opacity:1;stroke:none;stroke-width:1px;stroke-linecap:butt;stroke-linejoin:miter;stroke-opacity:1"
       d="m 13.011624,1048.1664 q -0.288995,0 -0.567669,-0.086 -0.268352,-0.096 -0.474777,-0.2998 -0.206425,-0.2142 -0.33028,-0.4819 -0.113534,-0.2784 -0.154819,-0.5676 -0.04128,-0.2891 -0.04128,-0.589 l 0,-3.352 -1.310799,0 0,-0.3856 1.310799,0 0,-2.1953 0.41285,0 0,2.1953 1.888789,0 0,0.3856 -1.888789,0 0,3.352 q 0,0.2891 0.04129,0.5783 0.05161,0.2785 0.185782,0.5355 0.144498,0.257 0.392208,0.3962 0.258031,0.1285 0.536705,0.1285 0.24771,0 0.474778,-0.086 0.237389,-0.096 0.392207,-0.2998 0.154819,-0.2142 0.216747,-0.4605 0.06193,-0.2464 0.06193,-0.5034 0,-0.043 0,-0.075 l 0.41285,0 q 0,0.043 0,0.096 0,0.332 -0.09289,0.6639 -0.09289,0.3213 -0.309638,0.5783 -0.216746,0.2571 -0.526383,0.3641 -0.309638,0.1071 -0.629597,0.1071 z" />
  </g>
</svg>
