<?xml version="1.0" encoding="UTF-8" standalone="no"?>
<!-- Created with Inkscape (http://www.inkscape.org/) -->

<svg
   xmlns:dc="http://purl.org/dc/elements/1.1/"
   xmlns:cc="http://creativecommons.org/ns#"
   xmlns:rdf="http://www.w3.org/1999/02/22-rdf-syntax-ns#"
   xmlns:svg="http://www.w3.org/2000/svg"
   xmlns="http://www.w3.org/2000/svg"
   xmlns:sodipodi="http://sodipodi.sourceforge.net/DTD/sodipodi-0.dtd"
   xmlns:inkscape="http://www.inkscape.org/namespaces/inkscape"
   width="16"
   height="16"
   viewBox="0 0 16 16"
   id="svg2"
   version="1.1"
   inkscape:version="0.91 r13725"
   sodipodi:docname="uff.svg"
   inkscape:export-filename="E:\My\build\DeepSeaBase\src\icons\d94.png"
   inkscape:export-xdpi="90"
   inkscape:export-ydpi="90">
  <defs
     id="defs4" />
  <sodipodi:namedview
     id="base"
     pagecolor="#ffffff"
     bordercolor="#666666"
     borderopacity="1.0"
     inkscape:pageopacity="0.0"
     inkscape:pageshadow="2"
     inkscape:zoom="31.678384"
     inkscape:cx="-11.499694"
     inkscape:cy="4.6625582"
     inkscape:document-units="px"
     inkscape:current-layer="layer1"
     showgrid="true"
     units="px"
     inkscape:snap-grids="false"
     inkscape:window-width="2560"
     inkscape:window-height="1379"
     inkscape:window-x="-9"
     inkscape:window-y="-9"
     inkscape:window-maximized="1">
    <inkscape:grid
       type="xygrid"
       id="grid4136" />
  </sodipodi:namedview>
  <metadata
     id="metadata7">
    <rdf:RDF>
      <cc:Work
         rdf:about="">
        <dc:format>image/svg+xml</dc:format>
        <dc:type
           rdf:resource="http://purl.org/dc/dcmitype/StillImage" />
        <dc:title />
      </cc:Work>
    </rdf:RDF>
  </metadata>
  <g
     inkscape:label="Layer 1"
     inkscape:groupmode="layer"
     id="layer1"
     transform="translate(0,-1036.3622)">
    <path
       style="opacity:1;fill:#ccffaa;fill-opacity:0.41964285;stroke:#2d5016;stroke-width:0.16599999;stroke-linecap:round;stroke-linejoin:miter;stroke-miterlimit:4;stroke-dasharray:none;stroke-opacity:1"
       d="m 2.5942364,1037.3622 10.8115276,0 c 0.883207,0 1.594236,0.711 1.594236,1.5942 l 0,10.8115 c 0,0.8833 -0.711029,1.5943 -1.594236,1.5943 l -10.8115276,0 C 1.7110294,1051.3622 1,1050.6512 1,1049.7679 l 0,-10.8115 c 0,-0.8832 0.7110294,-1.5942 1.5942364,-1.5942 z"
       id="rect4138" />
    <path
       inkscape:connector-curvature="0"
       id="path4147"
       style="font-style:normal;font-variant:normal;font-weight:100;font-stretch:normal;font-size:10px;line-height:125%;font-family:Iosevka;-inkscape-font-specification:'Iosevka Thin';text-align:center;letter-spacing:-0.62000006px;word-spacing:0px;text-anchor:middle;fill:#112b00;fill-opacity:1;stroke:#17280b;stroke-width:0.2;stroke-linecap:butt;stroke-linejoin:miter;stroke-miterlimit:4;stroke-dasharray:none;stroke-opacity:1"
       d="m 3.74,1048.1172 q -0.39,0 -0.76,-0.15 -0.36,-0.15 -0.6,-0.46 -0.23,-0.32 -0.32,-0.7 -0.08,-0.38 -0.08,-0.77 l 0,-3.3 0.2,0 0,3.3 q 0,0.35 0.07,0.7 0.08,0.34 0.29,0.63 0.21,0.29 0.54,0.43 0.33,0.14 0.68,0.14 0.35,0 0.68,-0.14 0.33,-0.14 0.54,-0.43 0.21,-0.29 0.28,-0.63 0.08,-0.35 0.08,-0.7 l 0,-3.3 0.2,0 0,5.3 -0.2,0 0,-1 q -0.4,1.08 -1.6,1.08 z" />
    <path
       inkscape:connector-curvature="0"
       id="path4149"
       style="font-style:normal;font-variant:normal;font-weight:100;font-stretch:normal;font-size:10px;line-height:125%;font-family:Iosevka;-inkscape-font-specification:'Iosevka Thin';text-align:center;letter-spacing:-0.62000006px;word-spacing:0px;text-anchor:middle;fill:#112b00;fill-opacity:1;stroke:#17280b;stroke-width:0.2;stroke-linecap:butt;stroke-linejoin:miter;stroke-miterlimit:4;stroke-dasharray:none;stroke-opacity:1"
       d="m 7.5600001,1048.0372 0,-4.69 -1.2,0 0,-0.18 1.2,0 0,-1.08 q 0,-0.29 0.05,-0.58 0.06,-0.3 0.22,-0.55 0.16,-0.26 0.43,-0.38 0.27,-0.13 0.57,-0.13 0.25,0 0.49,0.07 0.24,0.07 0.42,0.25 0.19,0.18 0.2699999,0.42 0.08,0.24 0.08,0.49 0,0.03 0,0.07 l -0.1999999,0 q 0,-0.03 0,-0.06 0,-0.28 -0.13,-0.54 -0.12,-0.27 -0.39,-0.39 -0.26,-0.13 -0.54,-0.13 -0.26,0 -0.49,0.12 -0.23,0.12 -0.36,0.35 -0.13,0.23 -0.18,0.48 -0.04,0.25 -0.04,0.51 l 0,1.08 1.98,0 0,0.18 -1.98,0 0,4.69 -0.2,0 z" />
    <path
       inkscape:connector-curvature="0"
       id="path4151"
       style="font-style:normal;font-variant:normal;font-weight:100;font-stretch:normal;font-size:10px;line-height:125%;font-family:Iosevka;-inkscape-font-specification:'Iosevka Thin';text-align:center;letter-spacing:-0.62000006px;word-spacing:0px;text-anchor:middle;fill:#112b00;fill-opacity:1;stroke:#17280b;stroke-width:0.2;stroke-linecap:butt;stroke-linejoin:miter;stroke-miterlimit:4;stroke-dasharray:none;stroke-opacity:1"
       d="m 11.64,1048.0372 0,-4.69 -1.2,0 0,-0.18 1.2,0 0,-1.08 q 0,-0.29 0.05,-0.58 0.06,-0.3 0.22,-0.55 0.16,-0.26 0.43,-0.38 0.27,-0.13 0.57,-0.13 0.25,0 0.49,0.07 0.24,0.07 0.42,0.25 0.19,0.18 0.27,0.42 0.08,0.24 0.08,0.49 0,0.03 0,0.07 l -0.2,0 q 0,-0.03 0,-0.06 0,-0.28 -0.13,-0.54 -0.12,-0.27 -0.39,-0.39 -0.26,-0.13 -0.54,-0.13 -0.26,0 -0.49,0.12 -0.23,0.12 -0.36,0.35 -0.13,0.23 -0.18,0.48 -0.04,0.25 -0.04,0.51 l 0,1.08 1.98,0 0,0.18 -1.98,0 0,4.69 -0.2,0 z" />
  </g>
</svg>
