<?xml version="1.0" encoding="UTF-8" standalone="no"?>
<!-- Created with Inkscape (http://www.inkscape.org/) -->

<svg
   xmlns:dc="http://purl.org/dc/elements/1.1/"
   xmlns:cc="http://creativecommons.org/ns#"
   xmlns:rdf="http://www.w3.org/1999/02/22-rdf-syntax-ns#"
   xmlns:svg="http://www.w3.org/2000/svg"
   xmlns="http://www.w3.org/2000/svg"
   xmlns:sodipodi="http://sodipodi.sourceforge.net/DTD/sodipodi-0.dtd"
   xmlns:inkscape="http://www.inkscape.org/namespaces/inkscape"
   width="16"
   height="16"
   viewBox="0 0 16 16"
   id="svg2"
   version="1.1"
   inkscape:version="0.91 r13725"
   sodipodi:docname="wav.svg"
   inkscape:export-filename="E:\My\build\DeepSeaBase\src\icons\d94.png"
   inkscape:export-xdpi="90"
   inkscape:export-ydpi="90">
  <defs
     id="defs4" />
  <sodipodi:namedview
     id="base"
     pagecolor="#ffffff"
     bordercolor="#666666"
     borderopacity="1.0"
     inkscape:pageopacity="0.0"
     inkscape:pageshadow="2"
     inkscape:zoom="31.678384"
     inkscape:cx="12.820915"
     inkscape:cy="12.847515"
     inkscape:document-units="px"
     inkscape:current-layer="layer1"
     showgrid="true"
     units="px"
     inkscape:snap-grids="false"
     inkscape:window-width="2560"
     inkscape:window-height="1379"
     inkscape:window-x="-9"
     inkscape:window-y="-9"
     inkscape:window-maximized="1">
    <inkscape:grid
       type="xygrid"
       id="grid4136" />
  </sodipodi:namedview>
  <metadata
     id="metadata7">
    <rdf:RDF>
      <cc:Work
         rdf:about="">
        <dc:format>image/svg+xml</dc:format>
        <dc:type
           rdf:resource="http://purl.org/dc/dcmitype/StillImage" />
        <dc:title />
      </cc:Work>
    </rdf:RDF>
  </metadata>
  <g
     inkscape:label="Layer 1"
     inkscape:groupmode="layer"
     id="layer1"
     transform="translate(0,-1036.3622)">
    <path
       style="opacity:1;fill:#aaaaff;fill-opacity:0.41964284;stroke:#161650;stroke-width:0.16599999;stroke-linecap:round;stroke-linejoin:miter;stroke-miterlimit:4;stroke-dasharray:none;stroke-opacity:1"
       d="m 2.5942364,1037.3622 10.8115276,0 c 0.883207,0 1.594236,0.711 1.594236,1.5942 l 0,10.8115 c 0,0.8833 -0.711029,1.5943 -1.594236,1.5943 l -10.8115276,0 C 1.7110294,1051.3622 1,1050.6512 1,1049.7679 l 0,-10.8115 c 0,-0.8832 0.7110294,-1.5942 1.5942364,-1.5942 z"
       id="rect4138" />
    <g
       transform="scale(0.9524469,1.0499273)"
       style="font-style:normal;font-weight:normal;font-size:38.0978775px;line-height:125%;font-family:sans-serif;letter-spacing:0px;word-spacing:0px;fill:#000000;fill-opacity:1;stroke:none;stroke-width:1px;stroke-linecap:butt;stroke-linejoin:miter;stroke-opacity:1"
       id="text4138">
      <path
         d="m 2.7255888,998.26013 -0.8191043,-5.04797 0.3809788,0 0.6476639,3.97171 0.6952862,-3.46691 0.3809788,0 0.6952863,3.46691 0.6476639,-3.97171 0.3809788,0 -0.8191044,5.04797 -0.3809788,0 -0.7143352,-3.57167 -0.7143352,3.57167 -0.3809788,0 z"
         style="font-style:normal;font-variant:normal;font-weight:200;font-stretch:normal;font-size:9.52446938px;line-height:125%;font-family:Iosevka;-inkscape-font-specification:'Iosevka, Ultra-Light';text-align:start;writing-mode:lr-tb;text-anchor:start"
         id="path4143" />
      <path
         d="m 8.2402566,998.33633 q -0.2857341,0 -0.5714681,-0.0762 -0.2857341,-0.0762 -0.5047969,-0.27621 -0.2095384,-0.20954 -0.304783,-0.48575 -0.08572,-0.28573 -0.08572,-0.57146 0,-0.28574 0.095245,-0.55242 0.095245,-0.27621 0.304783,-0.4667 0.2095384,-0.20002 0.4762235,-0.30479 0.2666852,-0.11429 0.5428948,-0.15239 0.285734,-0.0381 0.5619437,-0.0381 l 1.1810342,0 0,-0.55242 q 0,-0.27621 -0.08572,-0.5429 -0.076196,-0.27621 -0.2762096,-0.47622 -0.1904894,-0.20002 -0.4571745,-0.27621 -0.2666851,-0.0857 -0.5428948,-0.0857 -0.3238319,0 -0.6381394,0.0952 -0.304783,0.0953 -0.5143214,0.37146 -0.2000138,0.26668 -0.2000138,0.59051 l -0.3809788,0 q 0,-0.3143 0.1428671,-0.60004 0.142867,-0.29526 0.4000277,-0.47622 0.2571606,-0.19049 0.5619437,-0.25716 0.3143075,-0.0667 0.6286149,-0.0667 0.2762097,0 0.5524193,0.0571 0.2762096,0.0571 0.5047968,0.21907 0.2381118,0.15239 0.4000279,0.3905 0.161916,0.22859 0.219063,0.5048 0.06667,0.26668 0.06667,0.55242 l 0,3.40023 -0.3809788,0 -0.00952,-0.84768 q -0.142867,0.30479 -0.4095522,0.53337 -0.2666851,0.21907 -0.6000416,0.30479 -0.3333564,0.0857 -0.6762373,0.0857 z m 0.1047692,-0.34288 q 0.304783,0 0.6000415,-0.0762 0.3047831,-0.0857 0.5428948,-0.28573 0.2381117,-0.20002 0.3428809,-0.48575 0.1047692,-0.29526 0.1047692,-0.60004 l 0,-0.79053 -1.1810342,0 q -0.2190628,0 -0.4476501,0.0286 -0.2190628,0.0286 -0.4286011,0.11429 -0.2095383,0.0762 -0.3905033,0.22859 -0.1714404,0.14287 -0.2571606,0.36193 -0.076196,0.20954 -0.076196,0.43813 0,0.21906 0.076196,0.43812 0.08572,0.21906 0.2571606,0.37146 0.180965,0.15239 0.4000277,0.20953 0.2285873,0.0476 0.4571746,0.0476 z"
         style="font-style:normal;font-variant:normal;font-weight:200;font-stretch:normal;font-size:9.52446938px;line-height:125%;font-family:Iosevka;-inkscape-font-specification:'Iosevka, Ultra-Light';text-align:start;writing-mode:lr-tb;text-anchor:start"
         id="path4145" />
      <path
         d="m 13.126309,998.26013 -1.619159,-5.04797 0.409552,0 0.761957,2.41922 q 0.400028,1.25723 0.666713,2.12395 0.266685,-0.86672 0.666713,-2.12395 l 0.761958,-2.41922 0.409552,0 -1.61916,5.04797 -0.438126,0 z"
         style="font-style:normal;font-variant:normal;font-weight:200;font-stretch:normal;font-size:9.52446938px;line-height:125%;font-family:Iosevka;-inkscape-font-specification:'Iosevka, Ultra-Light';text-align:start;writing-mode:lr-tb;text-anchor:start"
         id="path4147" />
    </g>
  </g>
</svg>
